<svg width="92" height="14" viewBox="0 0 92 14" fill="none" xmlns="http://www.w3.org/2000/svg">
<path d="M0.963403 13.5L5.9554 2.3H8.5154L13.5234 13.5H10.8034L6.7074 3.612H7.7314L3.6194 13.5H0.963403ZM3.4594 11.1L4.1474 9.132H9.9074L10.6114 11.1H3.4594ZM17.3452 13.628C16.6305 13.628 15.9905 13.4893 15.4252 13.212C14.8705 12.9347 14.4385 12.5133 14.1292 11.948C13.8198 11.372 13.6652 10.6413 13.6652 9.756V4.892H16.1612V9.388C16.1612 10.1027 16.3105 10.6307 16.6092 10.972C16.9185 11.3027 17.3505 11.468 17.9052 11.468C18.2892 11.468 18.6305 11.388 18.9292 11.228C19.2278 11.0573 19.4625 10.8013 19.6332 10.46C19.8038 10.108 19.8892 9.67067 19.8892 9.148V4.892H22.3852V13.5H20.0172V11.132L20.4492 11.82C20.1612 12.4173 19.7345 12.8707 19.1692 13.18C18.6145 13.4787 18.0065 13.628 17.3452 13.628ZM27.7535 13.628C26.9429 13.628 26.2122 13.4467 25.5615 13.084C24.9109 12.7107 24.3935 12.1933 24.0095 11.532C23.6362 10.8707 23.4495 10.092 23.4495 9.196C23.4495 8.28933 23.6362 7.50533 24.0095 6.844C24.3935 6.18267 24.9109 5.67067 25.5615 5.308C26.2122 4.94533 26.9429 4.764 27.7535 4.764C28.4789 4.764 29.1135 4.924 29.6575 5.244C30.2015 5.564 30.6229 6.04933 30.9215 6.7C31.2202 7.35067 31.3695 8.18267 31.3695 9.196C31.3695 10.1987 31.2255 11.0307 30.9375 11.692C30.6495 12.3427 30.2335 12.828 29.6895 13.148C29.1562 13.468 28.5109 13.628 27.7535 13.628ZM28.1855 11.58C28.5909 11.58 28.9589 11.484 29.2895 11.292C29.6202 11.1 29.8815 10.828 30.0735 10.476C30.2762 10.1133 30.3775 9.68667 30.3775 9.196C30.3775 8.69467 30.2762 8.268 30.0735 7.916C29.8815 7.564 29.6202 7.292 29.2895 7.1C28.9589 6.908 28.5909 6.812 28.1855 6.812C27.7695 6.812 27.3962 6.908 27.0655 7.1C26.7349 7.292 26.4682 7.564 26.2655 7.916C26.0735 8.268 25.9775 8.69467 25.9775 9.196C25.9775 9.68667 26.0735 10.1133 26.2655 10.476C26.4682 10.828 26.7349 11.1 27.0655 11.292C27.3962 11.484 27.7695 11.58 28.1855 11.58ZM30.4415 13.5V11.74L30.4895 9.18L30.3295 6.636V1.628H32.8255V13.5H30.4415ZM34.4957 13.5V4.892H36.9917V13.5H34.4957ZM35.7437 3.692C35.285 3.692 34.9117 3.55867 34.6237 3.292C34.3357 3.02533 34.1917 2.69467 34.1917 2.3C34.1917 1.90533 34.3357 1.57467 34.6237 1.308C34.9117 1.04133 35.285 0.907999 35.7437 0.907999C36.2023 0.907999 36.5757 1.036 36.8637 1.292C37.1517 1.53733 37.2957 1.85733 37.2957 2.252C37.2957 2.668 37.1517 3.01467 36.8637 3.292C36.5863 3.55867 36.213 3.692 35.7437 3.692ZM42.7642 13.628C41.8468 13.628 41.0308 13.436 40.3162 13.052C39.6122 12.668 39.0522 12.1453 38.6362 11.484C38.2308 10.812 38.0282 10.0493 38.0282 9.196C38.0282 8.332 38.2308 7.56933 38.6362 6.908C39.0522 6.236 39.6122 5.71333 40.3162 5.34C41.0308 4.956 41.8468 4.764 42.7642 4.764C43.6708 4.764 44.4815 4.956 45.1962 5.34C45.9108 5.71333 46.4708 6.23067 46.8762 6.892C47.2815 7.55333 47.4842 8.32133 47.4842 9.196C47.4842 10.0493 47.2815 10.812 46.8762 11.484C46.4708 12.1453 45.9108 12.668 45.1962 13.052C44.4815 13.436 43.6708 13.628 42.7642 13.628ZM42.7642 11.58C43.1802 11.58 43.5535 11.484 43.8842 11.292C44.2148 11.1 44.4762 10.828 44.6682 10.476C44.8602 10.1133 44.9562 9.68667 44.9562 9.196C44.9562 8.69467 44.8602 8.268 44.6682 7.916C44.4762 7.564 44.2148 7.292 43.8842 7.1C43.5535 6.908 43.1802 6.812 42.7642 6.812C42.3482 6.812 41.9748 6.908 41.6442 7.1C41.3135 7.292 41.0468 7.564 40.8442 7.916C40.6522 8.268 40.5562 8.69467 40.5562 9.196C40.5562 9.68667 40.6522 10.1133 40.8442 10.476C41.0468 10.828 41.3135 11.1 41.6442 11.292C41.9748 11.484 42.3482 11.58 42.7642 11.58ZM48.3488 9.996V7.996H52.8768V9.996H48.3488ZM58.5169 13.628C57.5889 13.628 56.7622 13.4413 56.0369 13.068C55.3116 12.684 54.7409 12.156 54.3249 11.484C53.9196 10.812 53.7169 10.0493 53.7169 9.196C53.7169 8.332 53.9196 7.56933 54.3249 6.908C54.7409 6.236 55.3116 5.71333 56.0369 5.34C56.7622 4.956 57.5889 4.764 58.5169 4.764C59.4236 4.764 60.2129 4.956 60.8849 5.34C61.5569 5.71333 62.0529 6.252 62.3729 6.956L60.4369 7.996C60.2129 7.59067 59.9302 7.292 59.5889 7.1C59.2582 6.908 58.8956 6.812 58.5009 6.812C58.0742 6.812 57.6902 6.908 57.3489 7.1C57.0076 7.292 56.7356 7.564 56.5329 7.916C56.3409 8.268 56.2449 8.69467 56.2449 9.196C56.2449 9.69733 56.3409 10.124 56.5329 10.476C56.7356 10.828 57.0076 11.1 57.3489 11.292C57.6902 11.484 58.0742 11.58 58.5009 11.58C58.8956 11.58 59.2582 11.4893 59.5889 11.308C59.9302 11.116 60.2129 10.812 60.4369 10.396L62.3729 11.452C62.0529 12.1453 61.5569 12.684 60.8849 13.068C60.2129 13.4413 59.4236 13.628 58.5169 13.628ZM68.45 13.5V11.82L68.29 11.452V8.444C68.29 7.91067 68.1247 7.49467 67.794 7.196C67.474 6.89733 66.978 6.748 66.306 6.748C65.8474 6.748 65.394 6.82267 64.946 6.972C64.5087 7.11067 64.1354 7.30267 63.826 7.548L62.93 5.804C63.3994 5.47333 63.9647 5.21733 64.626 5.036C65.2874 4.85467 65.9594 4.764 66.642 4.764C67.954 4.764 68.9727 5.07333 69.698 5.692C70.4234 6.31067 70.786 7.276 70.786 8.588V13.5H68.45ZM65.826 13.628C65.154 13.628 64.578 13.516 64.098 13.292C63.618 13.0573 63.25 12.7427 62.994 12.348C62.738 11.9533 62.61 11.5107 62.61 11.02C62.61 10.508 62.7327 10.06 62.978 9.676C63.234 9.292 63.634 8.99333 64.178 8.78C64.722 8.556 65.4314 8.444 66.306 8.444H68.594V9.9H66.578C65.9914 9.9 65.586 9.996 65.362 10.188C65.1487 10.38 65.042 10.62 65.042 10.908C65.042 11.228 65.1647 11.484 65.41 11.676C65.666 11.8573 66.0127 11.948 66.45 11.948C66.866 11.948 67.2394 11.852 67.57 11.66C67.9007 11.4573 68.1407 11.164 68.29 10.78L68.674 11.932C68.4927 12.4867 68.162 12.908 67.682 13.196C67.202 13.484 66.5834 13.628 65.826 13.628ZM72.405 13.5V1.628H74.901V13.5H72.405ZM76.5775 13.5V1.628H79.0735V13.5H76.5775ZM89.5373 5.484L91.9053 9.084L89.5373 12.716H87.3773L89.5533 9.084L87.3773 5.484H89.5373ZM90.0173 8.22V9.964H84.2893V8.22H90.0173Z" fill="#2B788B"/>
</svg>
