<svg width="152" height="20" viewBox="0 0 152 20" fill="none" xmlns="http://www.w3.org/2000/svg">
<path d="M11.0053 9.08842H21.4019V19.1685H17.1167L16.6053 14.8589C16.1184 16.4009 15.25 17.5453 14.0001 18.292C12.7502 19.0386 11.2244 19.412 9.42268 19.412C7.78325 19.412 6.32237 19.0468 5.04004 18.3163C3.77394 17.5859 2.77567 16.5389 2.04523 15.1754C1.33102 13.8119 0.973921 12.2212 0.973921 10.4032C0.973921 7.49769 1.84233 5.20086 3.57916 3.51273C5.31598 1.8246 8.01861 0.980533 11.687 0.980533C13.781 0.980533 15.6233 1.32141 17.214 2.00315C18.821 2.68489 20.1845 3.73997 21.3045 5.16839C20.5741 5.54173 19.1457 6.2884 17.0193 7.40841L16.4106 7.74928C15.7775 7.11623 15.039 6.6455 14.1949 6.3371C13.3508 6.01246 12.4581 5.85014 11.5166 5.85014C9.95834 5.85014 8.79775 6.26405 8.03485 7.09189C7.27194 7.90349 6.89049 8.90987 6.89049 10.111C6.89049 11.4096 7.29629 12.4566 8.10789 13.2519C8.93572 14.0473 10.1937 14.445 11.8818 14.445C12.6123 14.445 13.3184 14.3395 14.0001 14.1285C14.6981 13.9174 15.2824 13.5522 15.7532 13.0328H11.0053V9.08842ZM28.5832 9.42929C28.567 10.4032 28.5589 11.8966 28.5589 13.9093C28.5589 16.3279 28.5751 18.081 28.6076 19.1685H22.8615L22.8858 16.4172C22.9183 13.398 22.9345 11.0687 22.9345 9.42929C22.9345 7.87102 22.9183 5.66347 22.8858 2.80663L22.8615 0.177049H28.6076C28.5751 2.48199 28.5589 4.36491 28.5589 5.82579C28.5589 7.44899 28.567 8.65016 28.5832 9.42929ZM37.9184 19.412C35.1427 19.412 33.0975 18.7789 31.7827 17.5128C30.4842 16.2305 29.8349 14.5505 29.8349 12.4728C29.8349 10.4438 30.4842 8.79625 31.7827 7.53015C33.0975 6.26405 35.1427 5.631 37.9184 5.631C39.7851 5.631 41.3434 5.93941 42.5932 6.55623C43.8593 7.15681 44.7927 7.97653 45.3933 9.01538C45.9938 10.038 46.2941 11.1905 46.2941 12.4728C46.2941 14.5667 45.5962 16.2467 44.2002 17.5128C42.8205 18.7789 40.7266 19.412 37.9184 19.412ZM38.0158 15.2728C39.0709 15.2728 39.8581 15.0212 40.3776 14.518C40.897 14.0148 41.1567 13.3412 41.1567 12.4971C41.1567 11.7018 40.897 11.0525 40.3776 10.5493C39.8581 10.0299 39.0709 9.77017 38.0158 9.77017C36.9607 9.77017 36.1897 10.0218 35.7028 10.525C35.2158 11.0281 34.9723 11.6855 34.9723 12.4971C34.9723 13.3412 35.2158 14.0148 35.7028 14.518C36.1897 15.0212 36.9607 15.2728 38.0158 15.2728ZM58.0866 5.631C59.1741 5.631 60.1399 5.96376 60.984 6.62927C61.8443 7.27855 62.5098 8.14697 62.9805 9.23451C63.4512 10.3058 63.6866 11.4502 63.6866 12.6676C63.6866 13.9012 63.4512 15.0375 62.9805 16.0763C62.5098 17.0989 61.8524 17.9105 61.0083 18.5111C60.1643 19.1117 59.2147 19.412 58.1596 19.412C56.926 19.412 55.8547 19.1523 54.9457 18.6328C54.0367 18.0972 53.3549 17.2612 52.9004 16.125L52.1943 19.1685H47.5195C47.6169 16.1169 47.6656 12.9598 47.6656 9.69712C47.6656 6.40202 47.6169 3.2449 47.5195 0.225744H53.0222L52.9491 3.22055C52.868 5.33071 52.8274 7.21362 52.8274 8.86929C53.2657 7.76551 53.9312 6.95391 54.8239 6.43449C55.7329 5.89883 56.8205 5.631 58.0866 5.631ZM55.6031 15.3215C56.3822 15.3215 56.999 15.0618 57.4535 14.5424C57.908 14.023 58.1353 13.3493 58.1353 12.5215C58.1353 11.7748 57.8837 11.1742 57.3805 10.7197C56.8935 10.249 56.2848 10.0136 55.5544 10.0136C55.181 10.0136 54.7915 10.1029 54.3857 10.2815C53.9799 10.4438 53.6309 10.7197 53.3387 11.1093C53.0465 11.4826 52.9004 11.9534 52.9004 12.5215C52.9004 13.5279 53.1277 14.2502 53.5822 14.6885C54.0367 15.1105 54.7103 15.3215 55.6031 15.3215ZM80.758 15.1267C80.758 15.6786 80.8229 16.0682 80.9528 16.2954C81.0826 16.5227 81.3423 16.685 81.7319 16.7824L81.6345 19.0711C81.1151 19.1523 80.6606 19.2091 80.271 19.2415C79.8977 19.274 79.3945 19.2902 78.7615 19.2902C77.3655 19.2902 76.4403 18.9818 75.9858 18.365C75.5313 17.732 75.304 16.9285 75.304 15.9546V15.3459C74.8333 16.6769 74.1434 17.667 73.2345 18.3163C72.3417 18.9656 71.1973 19.2902 69.8014 19.2902C68.1782 19.2902 66.9527 18.9656 66.1248 18.3163C65.3132 17.667 64.9074 16.7012 64.9074 15.4189C64.9074 14.3638 65.2564 13.536 65.9544 12.9354C66.6524 12.3348 67.7318 11.9209 69.1927 11.6937C67.9591 10.8171 66.7254 10.0542 65.4918 9.40495C66.4657 8.17131 67.5776 7.23797 68.8275 6.60492C70.0773 5.95564 71.595 5.631 73.3805 5.631C75.8803 5.631 77.7307 6.17478 78.9319 7.26232C80.1493 8.33363 80.758 9.9893 80.758 12.2293V15.1267ZM73.8919 9.91625C73.064 9.91625 72.3336 10.0542 71.7005 10.3302C71.0675 10.6061 70.4994 11.02 69.9962 11.5719C70.9701 11.4583 72.1875 11.4015 73.6484 11.4015C74.249 11.4015 74.671 11.3284 74.9145 11.1824C75.1579 11.0363 75.2797 10.8496 75.2797 10.6223C75.2797 10.4276 75.1579 10.2652 74.9145 10.1354C74.671 9.9893 74.3301 9.91625 73.8919 9.91625ZM71.3353 15.3215C72.2443 15.3215 73.064 15.1511 73.7945 14.8102C74.5249 14.4531 75.0281 13.9905 75.304 13.4224V12.7893C74.9145 12.9841 74.4843 13.1383 74.0136 13.2519C73.5429 13.3493 72.9747 13.4467 72.3092 13.5441L71.4327 13.6902C70.5237 13.8687 70.0692 14.1772 70.0692 14.6154C70.0692 15.0862 70.4912 15.3215 71.3353 15.3215ZM88.4327 9.42929C88.4165 10.4032 88.4084 11.8966 88.4084 13.9093C88.4084 16.3279 88.4246 18.081 88.4571 19.1685H82.711L82.7353 16.4172C82.7678 13.398 82.784 11.0687 82.784 9.42929C82.784 7.87102 82.7678 5.66347 82.7353 2.80663L82.711 0.177049H88.4571C88.4246 2.48199 88.4084 4.36491 88.4084 5.82579C88.4084 7.44899 88.4165 8.65016 88.4327 9.42929ZM110.843 6.60492C108.294 6.52376 105.819 6.47507 103.417 6.45884V19.1685H97.3297V6.45884C94.9111 6.47507 92.4438 6.52376 89.9279 6.60492V1.49184H110.843V6.60492ZM124.997 15.1267C124.997 15.6786 125.062 16.0682 125.192 16.2954C125.322 16.5227 125.582 16.685 125.971 16.7824L125.874 19.0711C125.354 19.1523 124.9 19.2091 124.51 19.2415C124.137 19.274 123.634 19.2902 123.001 19.2902C121.605 19.2902 120.679 18.9818 120.225 18.365C119.77 17.732 119.543 16.9285 119.543 15.9546V15.3459C119.073 16.6769 118.383 17.667 117.474 18.3163C116.581 18.9656 115.437 19.2902 114.041 19.2902C112.417 19.2902 111.192 18.9656 110.364 18.3163C109.552 17.667 109.147 16.7012 109.147 15.4189C109.147 14.3638 109.496 13.536 110.194 12.9354C110.892 12.3348 111.971 11.9209 113.432 11.6937C112.198 10.8171 110.965 10.0542 109.731 9.40495C110.705 8.17131 111.817 7.23797 113.067 6.60492C114.317 5.95564 115.834 5.631 117.62 5.631C120.119 5.631 121.97 6.17478 123.171 7.26232C124.388 8.33363 124.997 9.9893 124.997 12.2293V15.1267ZM118.131 9.91625C117.303 9.91625 116.573 10.0542 115.94 10.3302C115.307 10.6061 114.739 11.02 114.235 11.5719C115.209 11.4583 116.427 11.4015 117.888 11.4015C118.488 11.4015 118.91 11.3284 119.154 11.1824C119.397 11.0363 119.519 10.8496 119.519 10.6223C119.519 10.4276 119.397 10.2652 119.154 10.1354C118.91 9.9893 118.569 9.91625 118.131 9.91625ZM115.575 15.3215C116.484 15.3215 117.303 15.1511 118.034 14.8102C118.764 14.4531 119.267 13.9905 119.543 13.4224V12.7893C119.154 12.9841 118.724 13.1383 118.253 13.2519C117.782 13.3493 117.214 13.4467 116.548 13.5441L115.672 13.6902C114.763 13.8687 114.308 14.1772 114.308 14.6154C114.308 15.0862 114.73 15.3215 115.575 15.3215ZM132.672 9.42929C132.656 10.4032 132.648 11.8966 132.648 13.9093C132.648 16.3279 132.664 18.081 132.696 19.1685H126.95L126.975 16.4172C127.007 13.398 127.023 11.0687 127.023 9.42929C127.023 7.87102 127.007 5.66347 126.975 2.80663L126.95 0.177049H132.696C132.664 2.48199 132.648 4.36491 132.648 5.82579C132.648 7.44899 132.656 8.65016 132.672 9.42929ZM151.357 5.85014L145.318 11.3528C147.38 14.2745 149.303 16.8798 151.089 19.1685H144.637L143.395 17.172C142.583 15.8247 142.048 14.9482 141.788 14.5424L139.767 16.3928V19.1685H134.167C134.297 16.0844 134.362 12.9598 134.362 9.79451C134.362 6.61304 134.297 3.42345 134.167 0.225744H139.767V10.5493C141.342 8.94233 142.827 7.37595 144.223 5.85014H151.357Z" fill="black"/>
</svg>
