<svg width="125" height="15" viewBox="0 0 125 15" fill="none" xmlns="http://www.w3.org/2000/svg">
<path d="M0.0149532 14.6462V0.738035H3.2337V12.0235H10.2076V14.6462H0.0149532ZM16.2395 14.8051C15.0209 14.8051 13.948 14.5667 13.0208 14.0899C12.1068 13.613 11.3982 12.964 10.8948 12.1427C10.3915 11.3082 10.1398 10.3611 10.1398 9.30148C10.1398 8.22856 10.3849 7.28149 10.8749 6.46024C11.3783 5.62575 12.0605 4.97671 12.9214 4.5131C13.7824 4.03625 14.756 3.79783 15.8421 3.79783C16.8886 3.79783 17.829 4.02301 18.6635 4.47337C19.5112 4.91048 20.1802 5.54628 20.6703 6.38077C21.1604 7.20201 21.4054 8.18883 21.4054 9.34122C21.4054 9.46043 21.3988 9.59951 21.3855 9.75846C21.3723 9.90416 21.359 10.0432 21.3458 10.1757H12.6631V8.36765H19.7166L18.5244 8.9041C18.5244 8.34778 18.4118 7.8643 18.1867 7.45368C17.9615 7.04306 17.6502 6.72516 17.2528 6.49998C16.8554 6.26155 16.3918 6.14234 15.862 6.14234C15.3322 6.14234 14.8619 6.26155 14.4513 6.49998C14.054 6.72516 13.7427 7.04968 13.5175 7.47355C13.2923 7.88417 13.1797 8.37427 13.1797 8.94384V9.42069C13.1797 10.0035 13.3056 10.5201 13.5572 10.9705C13.8221 11.4076 14.1864 11.7453 14.65 11.9838C15.1269 12.2089 15.6832 12.3215 16.319 12.3215C16.8886 12.3215 17.3853 12.2354 17.8092 12.0632C18.2463 11.891 18.6436 11.6327 19.0013 11.2884L20.6504 13.0765C20.1603 13.6329 19.5444 14.0634 18.8026 14.368C18.0608 14.6594 17.2065 14.8051 16.2395 14.8051ZM28.9399 14.6462V12.56L28.7412 12.103V8.36765C28.7412 7.70535 28.5359 7.18876 28.1252 6.81788C27.7279 6.447 27.1119 6.26156 26.2774 6.26156C25.7079 6.26156 25.1449 6.35428 24.5886 6.53972C24.0455 6.71191 23.5819 6.95034 23.1978 7.25499L22.0851 5.0893C22.6679 4.67868 23.37 4.36078 24.1912 4.1356C25.0125 3.91042 25.847 3.79783 26.6947 3.79783C28.3239 3.79783 29.5889 4.18196 30.4896 4.95022C31.3903 5.71848 31.8407 6.91723 31.8407 8.54646V14.6462H28.9399ZM25.6814 14.8051C24.8469 14.8051 24.1316 14.666 23.5355 14.3879C22.9395 14.0965 22.4825 13.7057 22.1646 13.2156C21.8467 12.7255 21.6878 12.1758 21.6878 11.5665C21.6878 10.9307 21.8401 10.3744 22.1447 9.89754C22.4626 9.42069 22.9594 9.04981 23.6349 8.78489C24.3104 8.50673 25.1913 8.36765 26.2774 8.36765H29.1187V10.1757H26.6152C25.8867 10.1757 25.3833 10.2949 25.1052 10.5333C24.8403 10.7718 24.7078 11.0698 24.7078 11.4274C24.7078 11.8248 24.8601 12.1427 25.1648 12.3811C25.4827 12.6063 25.9132 12.7189 26.4563 12.7189C26.9728 12.7189 27.4365 12.5997 27.8471 12.3613C28.2577 12.1096 28.5557 11.7453 28.7412 11.2685L29.218 12.699C28.9928 13.3878 28.5822 13.911 27.9862 14.2687C27.3901 14.6263 26.6218 14.8051 25.6814 14.8051ZM33.8512 14.6462V3.95678H36.8116V6.97683L36.3944 6.10261C36.7123 5.34759 37.2222 4.77802 37.9243 4.39389C38.6263 3.99651 39.4807 3.79783 40.4873 3.79783V6.65893C40.3549 6.64568 40.2357 6.63906 40.1297 6.63906C40.0237 6.62582 39.9111 6.61919 39.7919 6.61919C38.9442 6.61919 38.2554 6.86424 37.7256 7.35434C37.209 7.83119 36.9507 8.57958 36.9507 9.59951V14.6462H33.8512ZM48.0521 3.79783C48.8998 3.79783 49.6548 3.97002 50.3171 4.31441C50.9926 4.64556 51.5225 5.16215 51.9066 5.86418C52.2907 6.55296 52.4828 7.44044 52.4828 8.5266V14.6462H49.3833V9.00345C49.3833 8.14247 49.1912 7.50667 48.8071 7.09604C48.4362 6.68542 47.9064 6.48011 47.2176 6.48011C46.7275 6.48011 46.2837 6.58608 45.8864 6.79801C45.5022 6.9967 45.1976 7.30798 44.9724 7.73184C44.7605 8.15571 44.6545 8.69879 44.6545 9.36108V14.6462H41.555V3.95678H44.5154V6.91722L43.9591 6.02313C44.3432 5.30785 44.8929 4.75815 45.6082 4.37402C46.3235 3.98989 47.1381 3.79783 48.0521 3.79783ZM73.0194 3.79783C73.8671 3.79783 74.6155 3.97002 75.2645 4.31441C75.9268 4.64556 76.4434 5.16215 76.8143 5.86418C77.1984 6.55296 77.3905 7.44044 77.3905 8.5266V14.6462H74.291V9.00345C74.291 8.14247 74.1121 7.50667 73.7545 7.09604C73.3969 6.68542 72.8935 6.48011 72.2445 6.48011C71.7941 6.48011 71.3901 6.58608 71.0325 6.79801C70.6748 6.9967 70.3967 7.30135 70.198 7.71198C69.9993 8.1226 69.9 8.64581 69.9 9.28161V14.6462H66.8004V9.00345C66.8004 8.14247 66.6216 7.50667 66.264 7.09604C65.9196 6.68542 65.4229 6.48011 64.7738 6.48011C64.3235 6.48011 63.9195 6.58608 63.5618 6.79801C63.2042 6.9967 62.926 7.30135 62.7273 7.71198C62.5286 8.1226 62.4293 8.64581 62.4293 9.28161V14.6462H59.3298V3.95678H62.2902V6.87749L61.7339 6.02313C62.1048 5.29461 62.628 4.74491 63.3035 4.37402C63.9923 3.98989 64.7738 3.79783 65.648 3.79783C66.6282 3.79783 67.4826 4.0495 68.2111 4.55284C68.9529 5.04294 69.443 5.79795 69.6814 6.81788L68.5886 6.51985C68.9463 5.68536 69.5158 5.02307 70.2973 4.53297C71.0921 4.04288 71.9994 3.79783 73.0194 3.79783ZM84.538 14.8051C83.3988 14.8051 82.3855 14.5667 81.498 14.0899C80.6238 13.613 79.9284 12.964 79.4118 12.1427C78.9085 11.3082 78.6568 10.3611 78.6568 9.30148C78.6568 8.22856 78.9085 7.28149 79.4118 6.46024C79.9284 5.62575 80.6238 4.97671 81.498 4.5131C82.3855 4.03625 83.3988 3.79783 84.538 3.79783C85.6639 3.79783 86.6706 4.03625 87.558 4.5131C88.4455 4.97671 89.1409 5.61913 89.6442 6.44037C90.1476 7.26162 90.3993 8.21532 90.3993 9.30148C90.3993 10.3611 90.1476 11.3082 89.6442 12.1427C89.1409 12.964 88.4455 13.613 87.558 14.0899C86.6706 14.5667 85.6639 14.8051 84.538 14.8051ZM84.538 12.2619C85.0546 12.2619 85.5182 12.1427 85.9288 11.9043C86.3394 11.6659 86.6639 11.3281 86.9024 10.891C87.1408 10.4406 87.26 9.91079 87.26 9.30148C87.26 8.67892 87.1408 8.14909 86.9024 7.71198C86.6639 7.27486 86.3394 6.93709 85.9288 6.69867C85.5182 6.46024 85.0546 6.34103 84.538 6.34103C84.0214 6.34103 83.5578 6.46024 83.1472 6.69867C82.7365 6.93709 82.4054 7.27486 82.1537 7.71198C81.9153 8.14909 81.7961 8.67892 81.7961 9.30148C81.7961 9.91079 81.9153 10.4406 82.1537 10.891C82.4054 11.3281 82.7365 11.6659 83.1472 11.9043C83.5578 12.1427 84.0214 12.2619 84.538 12.2619ZM91.6763 14.6462V3.95678H94.6367V6.97683L94.2195 6.10261C94.5374 5.34759 95.0474 4.77802 95.7494 4.39389C96.4514 3.99651 97.3058 3.79783 98.3125 3.79783V6.65893C98.18 6.64568 98.0608 6.63906 97.9548 6.63906C97.8489 6.62582 97.7363 6.61919 97.6171 6.61919C96.7693 6.61919 96.0805 6.86424 95.5507 7.35434C95.0341 7.83119 94.7758 8.57958 94.7758 9.59951V14.6462H91.6763ZM104.588 14.8051C103.369 14.8051 102.297 14.5667 101.369 14.0899C100.455 13.613 99.7467 12.964 99.2433 12.1427C98.74 11.3082 98.4883 10.3611 98.4883 9.30148C98.4883 8.22856 98.7334 7.28149 99.2235 6.46024C99.7268 5.62575 100.409 4.97671 101.27 4.5131C102.131 4.03625 103.105 3.79783 104.191 3.79783C105.237 3.79783 106.178 4.02301 107.012 4.47337C107.86 4.91048 108.529 5.54628 109.019 6.38077C109.509 7.20201 109.754 8.18883 109.754 9.34122C109.754 9.46043 109.747 9.59951 109.734 9.75846C109.721 9.90416 109.708 10.0432 109.694 10.1757H101.012V8.36765H108.065L106.873 8.9041C106.873 8.34778 106.76 7.8643 106.535 7.45368C106.31 7.04306 105.999 6.72516 105.601 6.49998C105.204 6.26155 104.74 6.14234 104.211 6.14234C103.681 6.14234 103.21 6.26155 102.8 6.49998C102.402 6.72516 102.091 7.04968 101.866 7.47355C101.641 7.88417 101.528 8.37427 101.528 8.94384V9.42069C101.528 10.0035 101.654 10.5201 101.906 10.9705C102.171 11.4076 102.535 11.7453 102.999 11.9838C103.475 12.2089 104.032 12.3215 104.668 12.3215C105.237 12.3215 105.734 12.2354 106.158 12.0632C106.595 11.891 106.992 11.6327 107.35 11.2884L108.999 13.0765C108.509 13.6329 107.893 14.0634 107.151 14.368C106.409 14.6594 105.555 14.8051 104.588 14.8051ZM121.935 4.69192L124.875 9.1624L121.935 13.6726H119.252L121.955 9.1624L119.252 4.69192H121.935ZM122.531 8.08948V10.2552H115.418V8.08948H122.531Z" fill="#2B788B"/>
</svg>
