<svg width="29" height="36" viewBox="0 0 29 36" fill="none" xmlns="http://www.w3.org/2000/svg">
<path d="M28.2726 0.856676C28.2298 0.76089 28.1601 0.679628 28.0719 0.622791C27.9837 0.565954 27.8809 0.535996 27.7759 0.536568H12.3997C12.3074 0.536722 12.2165 0.560044 12.1355 0.604399C12.0545 0.648754 11.986 0.712723 11.9361 0.790447L0.114174 19.5554C0.0572598 19.6371 0.024007 19.7329 0.0180796 19.8323C0.0121522 19.9317 0.0337801 20.0309 0.0805807 20.1188C0.127381 20.2066 0.197538 20.2799 0.283319 20.3305C0.3691 20.3811 0.467176 20.407 0.566741 20.4053H9.03305L1.56018 35.031C1.51728 35.118 1.49711 35.2144 1.50157 35.3113C1.50602 35.4081 1.53495 35.5023 1.58566 35.585C1.63636 35.6677 1.70719 35.7361 1.79153 35.784C1.87586 35.8319 1.97096 35.8577 2.06794 35.8588H5.3794C5.45601 35.8594 5.53188 35.8439 5.60219 35.8135C5.67251 35.7831 5.73572 35.7384 5.78781 35.6822L25.182 14.7207C25.2589 14.6422 25.3108 14.5425 25.3307 14.4344C25.3507 14.3263 25.3379 14.2147 25.294 14.1139C25.2502 14.0131 25.1772 13.9277 25.0844 13.8686C24.9917 13.8096 24.8834 13.7795 24.7735 13.7824H17.3338L28.1843 1.4417C28.2543 1.3633 28.2999 1.26623 28.3156 1.16233C28.3313 1.05844 28.3163 0.952229 28.2726 0.856676Z" fill="#2B788B"/>
</svg>
