<svg width="82" height="20" viewBox="0 0 82 20" fill="none" xmlns="http://www.w3.org/2000/svg">
<path d="M6.23605 15.8846C5.1234 15.8846 4.05711 15.7389 3.03717 15.4475C2.01724 15.1428 1.196 14.7521 0.573446 14.2752L1.66623 11.8512C2.26229 12.2751 2.96432 12.6261 3.77232 12.9043C4.59356 13.1692 5.42143 13.3017 6.25592 13.3017C6.89172 13.3017 7.40168 13.2421 7.78581 13.1228C8.18319 12.9904 8.4746 12.8116 8.66004 12.5864C8.84548 12.3612 8.9382 12.1029 8.9382 11.8115C8.9382 11.4406 8.7925 11.1492 8.50109 10.9373C8.20968 10.7121 7.82555 10.5333 7.3487 10.4008C6.87185 10.2551 6.34201 10.1227 5.7592 10.0034C5.18963 9.87099 4.61343 9.71204 4.03061 9.5266C3.46104 9.34115 2.93783 9.10273 2.46098 8.81132C1.98413 8.51991 1.59338 8.13578 1.28872 7.65893C0.997313 7.18208 0.851609 6.57277 0.851609 5.831C0.851609 5.03625 1.06354 4.31435 1.48741 3.66531C1.92452 3.00301 2.57357 2.4798 3.43455 2.09567C4.30878 1.6983 5.40156 1.49961 6.7129 1.49961C7.58712 1.49961 8.4481 1.60558 9.29584 1.81751C10.1436 2.0162 10.892 2.32085 11.541 2.73147L10.5476 5.17533C9.89853 4.80445 9.24948 4.53291 8.60043 4.36071C7.95139 4.17527 7.31558 4.08255 6.69303 4.08255C6.07047 4.08255 5.56051 4.1554 5.16313 4.30111C4.76576 4.44681 4.48097 4.63888 4.30878 4.8773C4.13658 5.10248 4.05048 5.3674 4.05048 5.67205C4.05048 6.02969 4.19619 6.3211 4.4876 6.54628C4.779 6.75821 5.16313 6.93041 5.63998 7.06287C6.11683 7.19533 6.64005 7.32778 7.20962 7.46024C7.79244 7.5927 8.36863 7.74503 8.9382 7.91722C9.52102 8.08942 10.0509 8.32122 10.5277 8.61263C11.0046 8.90404 11.3887 9.28817 11.6801 9.76502C11.9847 10.2419 12.1371 10.8446 12.1371 11.5731C12.1371 12.3546 11.9185 13.0699 11.4814 13.7189C11.0443 14.368 10.3886 14.8912 9.5144 15.2885C8.65342 15.6859 7.56063 15.8846 6.23605 15.8846ZM13.3231 15.6462V4.95678H16.4227V15.6462H13.3231ZM14.8729 3.46662C14.3033 3.46662 13.8397 3.30105 13.4821 2.9699C13.1245 2.63875 12.9456 2.22813 12.9456 1.73803C12.9456 1.24794 13.1245 0.837317 13.4821 0.506171C13.8397 0.175024 14.3033 0.00945104 14.8729 0.00945104C15.4425 0.00945104 15.9061 0.168402 16.2637 0.486303C16.6214 0.790957 16.8002 1.18833 16.8002 1.67843C16.8002 2.19502 16.6214 2.62551 16.2637 2.9699C15.9193 3.30105 15.4557 3.46662 14.8729 3.46662ZM23.5314 19.6597C22.5247 19.6597 21.5511 19.5338 20.6106 19.2822C19.6834 19.0437 18.9085 18.6795 18.286 18.1894L19.5179 15.9641C19.9682 16.335 20.5378 16.6264 21.2266 16.8383C21.9286 17.0635 22.6174 17.1761 23.2929 17.1761C24.3923 17.1761 25.1871 16.931 25.6772 16.4409C26.1805 15.9508 26.4322 15.2223 26.4322 14.2554V12.646L26.6309 9.96371L26.5911 7.26156V4.95678H29.5317V13.858C29.5317 15.8449 29.0151 17.3085 27.982 18.249C26.9488 19.1894 25.4652 19.6597 23.5314 19.6597ZM23.0545 15.1296C22.0611 15.1296 21.1603 14.9177 20.3523 14.4938C19.5576 14.0567 18.9152 13.454 18.4251 12.6857C17.9482 11.9042 17.7098 10.9969 17.7098 9.96371C17.7098 8.91729 17.9482 8.00995 18.4251 7.24169C18.9152 6.46018 19.5576 5.8575 20.3523 5.43363C21.1603 5.00976 22.0611 4.79783 23.0545 4.79783C23.9552 4.79783 24.75 4.98327 25.4388 5.35415C26.1275 5.71179 26.664 6.27474 27.0481 7.043C27.4323 7.79801 27.6243 8.77158 27.6243 9.96371C27.6243 11.1426 27.4323 12.1162 27.0481 12.8844C26.664 13.6394 26.1275 14.2024 25.4388 14.5733C24.75 14.9441 23.9552 15.1296 23.0545 15.1296ZM23.6704 12.5864C24.2135 12.5864 24.697 12.4804 25.1209 12.2685C25.5447 12.0433 25.8759 11.732 26.1143 11.3347C26.3527 10.9373 26.4719 10.4803 26.4719 9.96371C26.4719 9.43387 26.3527 8.97689 26.1143 8.59276C25.8759 8.19539 25.5447 7.89073 25.1209 7.6788C24.697 7.45362 24.2135 7.34103 23.6704 7.34103C23.1274 7.34103 22.6439 7.45362 22.22 7.6788C21.7961 7.89073 21.4584 8.19539 21.2067 8.59276C20.9683 8.97689 20.8491 9.43387 20.8491 9.96371C20.8491 10.4803 20.9683 10.9373 21.2067 11.3347C21.4584 11.732 21.7961 12.0433 22.22 12.2685C22.6439 12.4804 23.1274 12.5864 23.6704 12.5864ZM38.1189 4.79783C38.9666 4.79783 39.7217 4.97002 40.384 5.31441C41.0595 5.64556 41.5893 6.16215 41.9735 6.86418C42.3576 7.55296 42.5497 8.44044 42.5497 9.5266V15.6462H39.4501V10.0034C39.4501 9.14247 39.2581 8.50667 38.8739 8.09604C38.503 7.68542 37.9732 7.48011 37.2844 7.48011C36.7943 7.48011 36.3506 7.58608 35.9532 7.79801C35.5691 7.9967 35.2644 8.30798 35.0393 8.73184C34.8273 9.15571 34.7214 9.69879 34.7214 10.3611V15.6462H31.6218V4.95678H34.5823V7.91722L34.0259 7.02313C34.4101 6.30785 34.9598 5.75815 35.6751 5.37402C36.3903 4.98989 37.205 4.79783 38.1189 4.79783ZM49.6152 15.6462V1.73803H52.8339V15.6462H49.6152ZM61.6184 4.79783C62.4661 4.79783 63.2211 4.97002 63.8834 5.31441C64.559 5.64556 65.0888 6.16215 65.4729 6.86418C65.8571 7.55296 66.0491 8.44044 66.0491 9.5266V15.6462H62.9496V10.0034C62.9496 9.14247 62.7575 8.50667 62.3734 8.09604C62.0025 7.68542 61.4727 7.48011 60.7839 7.48011C60.2938 7.48011 59.8501 7.58608 59.4527 7.79801C59.0686 7.9967 58.7639 8.30798 58.5387 8.73184C58.3268 9.15571 58.2208 9.69879 58.2208 10.3611V15.6462H55.1213V4.95678H58.0818V7.91722L57.5254 7.02313C57.9096 6.30785 58.4593 5.75815 59.1745 5.37402C59.8898 4.98989 60.7044 4.79783 61.6184 4.79783ZM78.976 5.69192L81.9165 10.1624L78.976 14.6726H76.2937L78.9958 10.1624L76.2937 5.69192H78.976ZM79.572 9.08948V11.2552H72.459V9.08948H79.572Z" fill="black"/>
</svg>
