<svg width="60" height="17" viewBox="0 0 60 17" fill="none" xmlns="http://www.w3.org/2000/svg">
<path d="M5.008 13.192C4.112 13.192 3.25333 13.0747 2.432 12.84C1.61067 12.5947 0.949333 12.28 0.448 11.896L1.328 9.944C1.808 10.2853 2.37333 10.568 3.024 10.792C3.68533 11.0053 4.352 11.112 5.024 11.112C5.536 11.112 5.94667 11.064 6.256 10.968C6.576 10.8613 6.81067 10.7173 6.96 10.536C7.10933 10.3547 7.184 10.1467 7.184 9.912C7.184 9.61333 7.06667 9.37867 6.832 9.208C6.59733 9.02667 6.288 8.88267 5.904 8.776C5.52 8.65867 5.09333 8.552 4.624 8.456C4.16533 8.34933 3.70133 8.22133 3.232 8.072C2.77333 7.92267 2.352 7.73067 1.968 7.496C1.584 7.26133 1.26933 6.952 1.024 6.568C0.789333 6.184 0.672 5.69333 0.672 5.096C0.672 4.456 0.842667 3.87467 1.184 3.352C1.536 2.81867 2.05867 2.39733 2.752 2.088C3.456 1.768 4.336 1.608 5.392 1.608C6.096 1.608 6.78933 1.69333 7.472 1.864C8.15467 2.024 8.75733 2.26933 9.28 2.6L8.48 4.568C7.95733 4.26933 7.43467 4.05067 6.912 3.912C6.38933 3.76267 5.87733 3.688 5.376 3.688C4.87467 3.688 4.464 3.74667 4.144 3.864C3.824 3.98133 3.59467 4.136 3.456 4.328C3.31733 4.50933 3.248 4.72267 3.248 4.968C3.248 5.256 3.36533 5.49067 3.6 5.672C3.83467 5.84267 4.144 5.98133 4.528 6.088C4.912 6.19467 5.33333 6.30133 5.792 6.408C6.26133 6.51467 6.72533 6.63733 7.184 6.776C7.65333 6.91467 8.08 7.10133 8.464 7.336C8.848 7.57067 9.15733 7.88 9.392 8.264C9.63733 8.648 9.76 9.13333 9.76 9.72C9.76 10.3493 9.584 10.9253 9.232 11.448C8.88 11.9707 8.352 12.392 7.648 12.712C6.95467 13.032 6.07467 13.192 5.008 13.192ZM15.8031 13.128C15.0778 13.128 14.4431 12.968 13.8991 12.648C13.3551 12.328 12.9285 11.8427 12.6191 11.192C12.3205 10.5307 12.1711 9.69867 12.1711 8.696C12.1711 7.68267 12.3151 6.85067 12.6031 6.2C12.8911 5.54933 13.3071 5.064 13.8511 4.744C14.3951 4.424 15.0458 4.264 15.8031 4.264C16.6138 4.264 17.3391 4.45067 17.9791 4.824C18.6298 5.18667 19.1418 5.69867 19.5151 6.36C19.8991 7.02133 20.0911 7.8 20.0911 8.696C20.0911 9.60267 19.8991 10.3867 19.5151 11.048C19.1418 11.7093 18.6298 12.2213 17.9791 12.584C17.3391 12.9467 16.6138 13.128 15.8031 13.128ZM10.7151 16.104V4.392H13.0991V6.152L13.0511 8.712L13.2111 11.256V16.104H10.7151ZM15.3711 11.08C15.7871 11.08 16.1551 10.984 16.4751 10.792C16.8058 10.6 17.0671 10.328 17.2591 9.976C17.4618 9.61333 17.5631 9.18667 17.5631 8.696C17.5631 8.19467 17.4618 7.768 17.2591 7.416C17.0671 7.064 16.8058 6.792 16.4751 6.6C16.1551 6.408 15.7871 6.312 15.3711 6.312C14.9551 6.312 14.5818 6.408 14.2511 6.6C13.9205 6.792 13.6591 7.064 13.4671 7.416C13.2751 7.768 13.1791 8.19467 13.1791 8.696C13.1791 9.18667 13.2751 9.61333 13.4671 9.976C13.6591 10.328 13.9205 10.6 14.2511 10.792C14.5818 10.984 14.9551 11.08 15.3711 11.08ZM21.122 13V4.392H23.506V6.824L23.17 6.12C23.426 5.512 23.8367 5.05333 24.402 4.744C24.9673 4.424 25.6553 4.264 26.466 4.264V6.568C26.3593 6.55733 26.2633 6.552 26.178 6.552C26.0927 6.54133 26.002 6.536 25.906 6.536C25.2233 6.536 24.6687 6.73333 24.242 7.128C23.826 7.512 23.618 8.11467 23.618 8.936V13H21.122ZM27.3257 13V4.392H29.8218V13H27.3257ZM28.5738 3.192C28.1151 3.192 27.7418 3.05867 27.4538 2.792C27.1657 2.52533 27.0217 2.19467 27.0217 1.8C27.0217 1.40533 27.1657 1.07467 27.4538 0.808C27.7418 0.541333 28.1151 0.407999 28.5738 0.407999C29.0324 0.407999 29.4058 0.535999 29.6938 0.792C29.9818 1.03733 30.1258 1.35733 30.1258 1.752C30.1258 2.168 29.9818 2.51467 29.6938 2.792C29.4164 3.05867 29.0431 3.192 28.5738 3.192ZM36.7303 4.264C37.4129 4.264 38.0209 4.40267 38.5543 4.68C39.0983 4.94667 39.5249 5.36267 39.8343 5.928C40.1436 6.48267 40.2983 7.19733 40.2983 8.072V13H37.8023V8.456C37.8023 7.76267 37.6476 7.25067 37.3383 6.92C37.0396 6.58933 36.6129 6.424 36.0583 6.424C35.6636 6.424 35.3063 6.50933 34.9863 6.68C34.6769 6.84 34.4316 7.09067 34.2503 7.432C34.0796 7.77333 33.9943 8.21067 33.9943 8.744V13H31.4983V4.392H33.8823V6.776L33.4343 6.056C33.7436 5.48 34.1863 5.03733 34.7623 4.728C35.3383 4.41867 35.9943 4.264 36.7303 4.264ZM45.4407 13.128C44.4274 13.128 43.6381 12.872 43.0727 12.36C42.5074 11.8373 42.2247 11.064 42.2247 10.04V2.488H44.7207V10.008C44.7207 10.3707 44.8167 10.6533 45.0087 10.856C45.2007 11.048 45.4621 11.144 45.7927 11.144C46.1874 11.144 46.5234 11.0373 46.8007 10.824L47.4727 12.584C47.2167 12.7653 46.9074 12.904 46.5447 13C46.1927 13.0853 45.8247 13.128 45.4407 13.128ZM40.8967 6.504V4.584H46.8647V6.504H40.8967ZM57.0211 4.984L59.3891 8.584L57.0211 12.216H54.8611L57.0371 8.584L54.8611 4.984H57.0211ZM57.5011 7.72V9.464H51.7731V7.72H57.5011Z" fill="#945069"/>
</svg>
