<svg width="83" height="14" viewBox="0 0 83 14" fill="none" xmlns="http://www.w3.org/2000/svg">
<path d="M5.05561 13.192C4.15961 13.192 3.30094 13.0747 2.47961 12.84C1.65827 12.5947 0.996941 12.28 0.495607 11.896L1.37561 9.944C1.85561 10.2853 2.42094 10.568 3.07161 10.792C3.73294 11.0053 4.39961 11.112 5.07161 11.112C5.58361 11.112 5.99427 11.064 6.30361 10.968C6.62361 10.8613 6.85827 10.7173 7.00761 10.536C7.15694 10.3547 7.23161 10.1467 7.23161 9.912C7.23161 9.61333 7.11427 9.37867 6.87961 9.208C6.64494 9.02667 6.33561 8.88267 5.95161 8.776C5.56761 8.65867 5.14094 8.552 4.67161 8.456C4.21294 8.34933 3.74894 8.22133 3.27961 8.072C2.82094 7.92267 2.39961 7.73067 2.01561 7.496C1.63161 7.26133 1.31694 6.952 1.07161 6.568C0.836941 6.184 0.719607 5.69333 0.719607 5.096C0.719607 4.456 0.890274 3.87467 1.23161 3.352C1.58361 2.81867 2.10627 2.39733 2.79961 2.088C3.50361 1.768 4.38361 1.608 5.43961 1.608C6.14361 1.608 6.83694 1.69333 7.51961 1.864C8.20227 2.024 8.80494 2.26933 9.32761 2.6L8.52761 4.568C8.00494 4.26933 7.48227 4.05067 6.95961 3.912C6.43694 3.76267 5.92494 3.688 5.42361 3.688C4.92227 3.688 4.51161 3.74667 4.19161 3.864C3.87161 3.98133 3.64227 4.136 3.50361 4.328C3.36494 4.50933 3.29561 4.72267 3.29561 4.968C3.29561 5.256 3.41294 5.49067 3.64761 5.672C3.88227 5.84267 4.19161 5.98133 4.57561 6.088C4.95961 6.19467 5.38094 6.30133 5.83961 6.408C6.30894 6.51467 6.77294 6.63733 7.23161 6.776C7.70094 6.91467 8.12761 7.10133 8.51161 7.336C8.89561 7.57067 9.20494 7.88 9.43961 8.264C9.68494 8.648 9.80761 9.13333 9.80761 9.72C9.80761 10.3493 9.63161 10.9253 9.27961 11.448C8.92761 11.9707 8.39961 12.392 7.69561 12.712C7.00227 13.032 6.12227 13.192 5.05561 13.192ZM14.2827 13.128C13.2694 13.128 12.4801 12.872 11.9147 12.36C11.3494 11.8373 11.0667 11.064 11.0667 10.04V2.488H13.5627V10.008C13.5627 10.3707 13.6587 10.6533 13.8507 10.856C14.0427 11.048 14.3041 11.144 14.6347 11.144C15.0294 11.144 15.3654 11.0373 15.6427 10.824L16.3147 12.584C16.0587 12.7653 15.7494 12.904 15.3867 13C15.0347 13.0853 14.6667 13.128 14.2827 13.128ZM9.73873 6.504V4.584H15.7067V6.504H9.73873ZM22.3559 13V11.32L22.1959 10.952V7.944C22.1959 7.41067 22.0305 6.99467 21.6999 6.696C21.3799 6.39733 20.8839 6.248 20.2119 6.248C19.7532 6.248 19.2999 6.32267 18.8519 6.472C18.4145 6.61067 18.0412 6.80267 17.7319 7.048L16.8359 5.304C17.3052 4.97333 17.8705 4.71733 18.5319 4.536C19.1932 4.35467 19.8652 4.264 20.5479 4.264C21.8599 4.264 22.8785 4.57333 23.6039 5.192C24.3292 5.81067 24.6919 6.776 24.6919 8.088V13H22.3559ZM19.7319 13.128C19.0599 13.128 18.4839 13.016 18.0039 12.792C17.5239 12.5573 17.1559 12.2427 16.8999 11.848C16.6439 11.4533 16.5159 11.0107 16.5159 10.52C16.5159 10.008 16.6385 9.56 16.8839 9.176C17.1399 8.792 17.5399 8.49333 18.0839 8.28C18.6279 8.056 19.3372 7.944 20.2119 7.944H22.4999V9.4H20.4839C19.8972 9.4 19.4919 9.496 19.2679 9.688C19.0545 9.88 18.9479 10.12 18.9479 10.408C18.9479 10.728 19.0705 10.984 19.3159 11.176C19.5719 11.3573 19.9185 11.448 20.3559 11.448C20.7719 11.448 21.1452 11.352 21.4759 11.16C21.8065 10.9573 22.0465 10.664 22.1959 10.28L22.5799 11.432C22.3985 11.9867 22.0679 12.408 21.5879 12.696C21.1079 12.984 20.4892 13.128 19.7319 13.128ZM29.8309 13.128C28.8175 13.128 28.0282 12.872 27.4629 12.36C26.8975 11.8373 26.6149 11.064 26.6149 10.04V2.488H29.1109V10.008C29.1109 10.3707 29.2069 10.6533 29.3989 10.856C29.5909 11.048 29.8522 11.144 30.1829 11.144C30.5775 11.144 30.9135 11.0373 31.1909 10.824L31.8629 12.584C31.6069 12.7653 31.2975 12.904 30.9349 13C30.5829 13.0853 30.2149 13.128 29.8309 13.128ZM25.2869 6.504V4.584H31.2549V6.504H25.2869ZM32.624 13V4.392H35.12V13H32.624ZM33.872 3.192C33.4133 3.192 33.04 3.05867 32.752 2.792C32.464 2.52533 32.32 2.19467 32.32 1.8C32.32 1.40533 32.464 1.07467 32.752 0.808C33.04 0.541333 33.4133 0.407999 33.872 0.407999C34.3306 0.407999 34.704 0.535999 34.992 0.792C35.28 1.03733 35.424 1.35733 35.424 1.752C35.424 2.168 35.28 2.51467 34.992 2.792C34.7146 3.05867 34.3413 3.192 33.872 3.192ZM39.6925 13.128C38.9565 13.128 38.2471 13.0427 37.5645 12.872C36.8925 12.6907 36.3591 12.4667 35.9645 12.2L36.7965 10.408C37.1911 10.6533 37.6551 10.856 38.1885 11.016C38.7325 11.1653 39.2658 11.24 39.7885 11.24C40.3645 11.24 40.7698 11.1707 41.0045 11.032C41.2498 10.8933 41.3725 10.7013 41.3725 10.456C41.3725 10.2533 41.2765 10.104 41.0845 10.008C40.9031 9.90133 40.6578 9.82133 40.3485 9.768C40.0391 9.71467 39.6978 9.66133 39.3245 9.608C38.9618 9.55467 38.5938 9.48533 38.2205 9.4C37.8471 9.304 37.5058 9.16533 37.1965 8.984C36.8871 8.80267 36.6365 8.55733 36.4445 8.248C36.2631 7.93867 36.1725 7.53867 36.1725 7.048C36.1725 6.504 36.3271 6.024 36.6365 5.608C36.9565 5.192 37.4151 4.86667 38.0125 4.632C38.6098 4.38667 39.3245 4.264 40.1565 4.264C40.7431 4.264 41.3405 4.328 41.9485 4.456C42.5565 4.584 43.0631 4.77067 43.4685 5.016L42.6365 6.792C42.2205 6.54667 41.7991 6.38133 41.3725 6.296C40.9565 6.2 40.5511 6.152 40.1565 6.152C39.6018 6.152 39.1965 6.22667 38.9405 6.376C38.6845 6.52533 38.5565 6.71733 38.5565 6.952C38.5565 7.16533 38.6471 7.32533 38.8285 7.432C39.0205 7.53867 39.2711 7.624 39.5805 7.688C39.8898 7.752 40.2258 7.81067 40.5885 7.864C40.9618 7.90667 41.3351 7.976 41.7085 8.072C42.0818 8.168 42.4178 8.30667 42.7165 8.488C43.0258 8.65867 43.2765 8.89867 43.4685 9.208C43.6605 9.50667 43.7565 9.90133 43.7565 10.392C43.7565 10.9253 43.5965 11.4 43.2765 11.816C42.9565 12.2213 42.4925 12.5413 41.8845 12.776C41.2871 13.0107 40.5565 13.128 39.6925 13.128ZM48.1765 13.128C47.1631 13.128 46.3738 12.872 45.8085 12.36C45.2431 11.8373 44.9605 11.064 44.9605 10.04V2.488H47.4565V10.008C47.4565 10.3707 47.5525 10.6533 47.7445 10.856C47.9365 11.048 48.1978 11.144 48.5285 11.144C48.9231 11.144 49.2591 11.0373 49.5365 10.824L50.2085 12.584C49.9525 12.7653 49.6431 12.904 49.2805 13C48.9285 13.0853 48.5605 13.128 48.1765 13.128ZM43.6325 6.504V4.584H49.6005V6.504H43.6325ZM50.9696 13V4.392H53.4656V13H50.9696ZM52.2176 3.192C51.7589 3.192 51.3856 3.05867 51.0976 2.792C50.8096 2.52533 50.6656 2.19467 50.6656 1.8C50.6656 1.40533 50.8096 1.07467 51.0976 0.808C51.3856 0.541333 51.7589 0.407999 52.2176 0.407999C52.6763 0.407999 53.0496 0.535999 53.3376 0.792C53.6256 1.03733 53.7696 1.35733 53.7696 1.752C53.7696 2.168 53.6256 2.51467 53.3376 2.792C53.0603 3.05867 52.6869 3.192 52.2176 3.192ZM59.3021 13.128C58.3741 13.128 57.5474 12.9413 56.8221 12.568C56.0968 12.184 55.5261 11.656 55.1101 10.984C54.7048 10.312 54.5021 9.54933 54.5021 8.696C54.5021 7.832 54.7048 7.06933 55.1101 6.408C55.5261 5.736 56.0968 5.21333 56.8221 4.84C57.5474 4.456 58.3741 4.264 59.3021 4.264C60.2088 4.264 60.9981 4.456 61.6701 4.84C62.3421 5.21333 62.8381 5.752 63.1581 6.456L61.2221 7.496C60.9981 7.09067 60.7154 6.792 60.3741 6.6C60.0434 6.408 59.6808 6.312 59.2861 6.312C58.8594 6.312 58.4754 6.408 58.1341 6.6C57.7928 6.792 57.5208 7.064 57.3181 7.416C57.1261 7.768 57.0301 8.19467 57.0301 8.696C57.0301 9.19733 57.1261 9.624 57.3181 9.976C57.5208 10.328 57.7928 10.6 58.1341 10.792C58.4754 10.984 58.8594 11.08 59.2861 11.08C59.6808 11.08 60.0434 10.9893 60.3741 10.808C60.7154 10.616 60.9981 10.312 61.2221 9.896L63.1581 10.952C62.8381 11.6453 62.3421 12.184 61.6701 12.568C60.9981 12.9413 60.2088 13.128 59.3021 13.128ZM66.8512 13.128C66.1152 13.128 65.4059 13.0427 64.7232 12.872C64.0512 12.6907 63.5179 12.4667 63.1232 12.2L63.9552 10.408C64.3499 10.6533 64.8139 10.856 65.3472 11.016C65.8912 11.1653 66.4246 11.24 66.9472 11.24C67.5232 11.24 67.9286 11.1707 68.1632 11.032C68.4086 10.8933 68.5312 10.7013 68.5312 10.456C68.5312 10.2533 68.4352 10.104 68.2432 10.008C68.0619 9.90133 67.8166 9.82133 67.5072 9.768C67.1979 9.71467 66.8566 9.66133 66.4832 9.608C66.1206 9.55467 65.7526 9.48533 65.3792 9.4C65.0059 9.304 64.6646 9.16533 64.3552 8.984C64.0459 8.80267 63.7952 8.55733 63.6032 8.248C63.4219 7.93867 63.3312 7.53867 63.3312 7.048C63.3312 6.504 63.4859 6.024 63.7952 5.608C64.1152 5.192 64.5739 4.86667 65.1712 4.632C65.7686 4.38667 66.4832 4.264 67.3152 4.264C67.9019 4.264 68.4992 4.328 69.1072 4.456C69.7152 4.584 70.2219 4.77067 70.6272 5.016L69.7952 6.792C69.3792 6.54667 68.9579 6.38133 68.5312 6.296C68.1152 6.2 67.7099 6.152 67.3152 6.152C66.7606 6.152 66.3552 6.22667 66.0992 6.376C65.8432 6.52533 65.7152 6.71733 65.7152 6.952C65.7152 7.16533 65.8059 7.32533 65.9872 7.432C66.1792 7.53867 66.4299 7.624 66.7392 7.688C67.0486 7.752 67.3846 7.81067 67.7472 7.864C68.1206 7.90667 68.4939 7.976 68.8672 8.072C69.2406 8.168 69.5766 8.30667 69.8752 8.488C70.1846 8.65867 70.4352 8.89867 70.6272 9.208C70.8192 9.50667 70.9152 9.90133 70.9152 10.392C70.9152 10.9253 70.7552 11.4 70.4352 11.816C70.1152 12.2213 69.6512 12.5413 69.0432 12.776C68.4459 13.0107 67.7152 13.128 66.8512 13.128ZM80.6025 4.984L82.9705 8.584L80.6025 12.216H78.4425L80.6185 8.584L78.4425 4.984H80.6025ZM81.0825 7.72V9.464H75.3545V7.72H81.0825Z" fill="#2B788B"/>
</svg>
