<svg width="86" height="13" viewBox="0 0 86 13" fill="none" xmlns="http://www.w3.org/2000/svg">
<path d="M3.69561 12.0137V2.92567H0.111607V0.813671H9.87161V2.92567H6.28761V12.0137H3.69561ZM13.8472 12.1417C12.8659 12.1417 12.0019 11.9497 11.2552 11.5657C10.5192 11.1817 9.94857 10.659 9.54323 9.99767C9.1379 9.32567 8.93523 8.563 8.93523 7.70967C8.93523 6.84567 9.13257 6.083 9.52723 5.42167C9.93257 4.74967 10.4819 4.227 11.1752 3.85367C11.8686 3.46967 12.6526 3.27767 13.5272 3.27767C14.3699 3.27767 15.1272 3.45901 15.7992 3.82167C16.4819 4.17367 17.0206 4.68567 17.4152 5.35767C17.8099 6.01901 18.0072 6.81367 18.0072 7.74167C18.0072 7.83767 18.0019 7.94967 17.9912 8.07767C17.9806 8.19501 17.9699 8.30701 17.9592 8.41367H10.9672V6.95767H16.6472L15.6872 7.38967C15.6872 6.94167 15.5966 6.55234 15.4152 6.22167C15.2339 5.89101 14.9832 5.635 14.6632 5.45367C14.3432 5.26167 13.9699 5.16567 13.5432 5.16567C13.1166 5.16567 12.7379 5.26167 12.4072 5.45367C12.0872 5.635 11.8366 5.89634 11.6552 6.23767C11.4739 6.56834 11.3832 6.96301 11.3832 7.42167V7.80567C11.3832 8.27501 11.4846 8.69101 11.6872 9.05367C11.9006 9.40567 12.1939 9.67767 12.5672 9.86967C12.9512 10.051 13.3992 10.1417 13.9112 10.1417C14.3699 10.1417 14.7699 10.0723 15.1112 9.93367C15.4632 9.79501 15.7832 9.58701 16.0712 9.30967L17.3992 10.7497C17.0046 11.1977 16.5086 11.5443 15.9112 11.7897C15.3139 12.0243 14.6259 12.1417 13.8472 12.1417ZM17.7066 12.0137L21.5626 6.95767L21.5146 8.33367L17.8186 3.40567H20.6186L22.9546 6.62167L21.8986 6.65367L24.3146 3.40567H26.9706L23.2586 8.28567V6.94167L27.0986 12.0137H24.2666L21.8186 8.58967L22.8586 8.73367L20.4266 12.0137H17.7066ZM31.1902 12.1417C30.1769 12.1417 29.3876 11.8857 28.8222 11.3737C28.2569 10.851 27.9742 10.0777 27.9742 9.05367V1.50167H30.4702V9.02167C30.4702 9.38434 30.5662 9.66701 30.7582 9.86967C30.9502 10.0617 31.2116 10.1577 31.5422 10.1577C31.9369 10.1577 32.2729 10.051 32.5502 9.83767L33.2222 11.5977C32.9662 11.779 32.6569 11.9177 32.2942 12.0137C31.9422 12.099 31.5742 12.1417 31.1902 12.1417ZM26.6462 5.51767V3.59767H32.6142V5.51767H26.6462ZM39.0714 12.1417C38.314 12.1417 37.6634 11.9817 37.1194 11.6617C36.5754 11.3417 36.1594 10.8563 35.8714 10.2057C35.5834 9.54434 35.4394 8.71234 35.4394 7.70967C35.4394 6.69634 35.5887 5.86434 35.8874 5.21367C36.1967 4.563 36.6234 4.07767 37.1674 3.75767C37.7114 3.43767 38.346 3.27767 39.0714 3.27767C39.882 3.27767 40.6074 3.45901 41.2474 3.82167C41.898 4.18434 42.41 4.69634 42.7834 5.35767C43.1674 6.01901 43.3594 6.80301 43.3594 7.70967C43.3594 8.60567 43.1674 9.38434 42.7834 10.0457C42.41 10.707 41.898 11.2243 41.2474 11.5977C40.6074 11.9603 39.882 12.1417 39.0714 12.1417ZM33.9834 12.0137V0.141671H36.4794V5.14967L36.3194 7.69367L36.3674 10.2537V12.0137H33.9834ZM38.6394 10.0937C39.0554 10.0937 39.4234 9.99767 39.7434 9.80567C40.074 9.61367 40.3354 9.34167 40.5274 8.98967C40.73 8.62701 40.8314 8.20034 40.8314 7.70967C40.8314 7.20834 40.73 6.78167 40.5274 6.42967C40.3354 6.07767 40.074 5.80567 39.7434 5.61367C39.4234 5.42167 39.0554 5.32567 38.6394 5.32567C38.2234 5.32567 37.85 5.42167 37.5194 5.61367C37.1887 5.80567 36.9274 6.07767 36.7354 6.42967C36.5434 6.78167 36.4474 7.20834 36.4474 7.70967C36.4474 8.20034 36.5434 8.62701 36.7354 8.98967C36.9274 9.34167 37.1887 9.61367 37.5194 9.80567C37.85 9.99767 38.2234 10.0937 38.6394 10.0937ZM48.4862 12.1417C47.5689 12.1417 46.7529 11.9497 46.0382 11.5657C45.3342 11.1817 44.7742 10.659 44.3582 9.99767C43.9529 9.32567 43.7502 8.563 43.7502 7.70967C43.7502 6.84567 43.9529 6.083 44.3582 5.42167C44.7742 4.74967 45.3342 4.227 46.0382 3.85367C46.7529 3.46967 47.5689 3.27767 48.4862 3.27767C49.3929 3.27767 50.2036 3.46967 50.9182 3.85367C51.6329 4.227 52.1929 4.74434 52.5982 5.40567C53.0036 6.067 53.2062 6.835 53.2062 7.70967C53.2062 8.563 53.0036 9.32567 52.5982 9.99767C52.1929 10.659 51.6329 11.1817 50.9182 11.5657C50.2036 11.9497 49.3929 12.1417 48.4862 12.1417ZM48.4862 10.0937C48.9022 10.0937 49.2756 9.99767 49.6062 9.80567C49.9369 9.61367 50.1982 9.34167 50.3902 8.98967C50.5822 8.62701 50.6782 8.20034 50.6782 7.70967C50.6782 7.20834 50.5822 6.78167 50.3902 6.42967C50.1982 6.07767 49.9369 5.80567 49.6062 5.61367C49.2756 5.42167 48.9022 5.32567 48.4862 5.32567C48.0702 5.32567 47.6969 5.42167 47.3662 5.61367C47.0356 5.80567 46.7689 6.07767 46.5662 6.42967C46.3742 6.78167 46.2782 7.20834 46.2782 7.70967C46.2782 8.20034 46.3742 8.62701 46.5662 8.98967C46.7689 9.34167 47.0356 9.61367 47.3662 9.80567C47.6969 9.99767 48.0702 10.0937 48.4862 10.0937ZM58.3306 12.1417C57.4133 12.1417 56.5973 11.9497 55.8826 11.5657C55.1786 11.1817 54.6186 10.659 54.2026 9.99767C53.7973 9.32567 53.5946 8.563 53.5946 7.70967C53.5946 6.84567 53.7973 6.083 54.2026 5.42167C54.6186 4.74967 55.1786 4.227 55.8826 3.85367C56.5973 3.46967 57.4133 3.27767 58.3306 3.27767C59.2373 3.27767 60.0479 3.46967 60.7626 3.85367C61.4773 4.227 62.0373 4.74434 62.4426 5.40567C62.8479 6.067 63.0506 6.835 63.0506 7.70967C63.0506 8.563 62.8479 9.32567 62.4426 9.99767C62.0373 10.659 61.4773 11.1817 60.7626 11.5657C60.0479 11.9497 59.2373 12.1417 58.3306 12.1417ZM58.3306 10.0937C58.7466 10.0937 59.1199 9.99767 59.4506 9.80567C59.7813 9.61367 60.0426 9.34167 60.2346 8.98967C60.4266 8.62701 60.5226 8.20034 60.5226 7.70967C60.5226 7.20834 60.4266 6.78167 60.2346 6.42967C60.0426 6.07767 59.7813 5.80567 59.4506 5.61367C59.1199 5.42167 58.7466 5.32567 58.3306 5.32567C57.9146 5.32567 57.5413 5.42167 57.2106 5.61367C56.8799 5.80567 56.6133 6.07767 56.4106 6.42967C56.2186 6.78167 56.1226 7.20834 56.1226 7.70967C56.1226 8.20034 56.2186 8.62701 56.4106 8.98967C56.6133 9.34167 56.8799 9.61367 57.2106 9.80567C57.5413 9.99767 57.9146 10.0937 58.3306 10.0937ZM66.143 10.2537L66.207 7.21367L70.223 3.40567H73.199L69.343 7.32567L68.047 8.38167L66.143 10.2537ZM64.079 12.0137V0.141671H66.575V12.0137H64.079ZM70.495 12.0137L67.583 8.39767L69.151 6.46167L73.519 12.0137H70.495ZM82.7887 3.99767L85.1567 7.59767L82.7887 11.2297H80.6287L82.8047 7.59767L80.6287 3.99767H82.7887ZM83.2687 6.73367V8.47767H77.5407V6.73367H83.2687Z" fill="#2B788B"/>
</svg>
